<svg preserveAspectRatio="none" width="100%" height="100%" overflow="visible" style="display: block;" viewBox="0 0 67.0366 68.0518" fill="none" xmlns="http://www.w3.org/2000/svg">
<g id="Container">
<path id="Subtract" fill-rule="evenodd" clip-rule="evenodd" d="M0 0H67.0366V68.0518H0V0ZM12.8852 42.6943H7.32535V14.8597H12.8852V42.6943ZM23.4158 14.2072H36.9553V16.8708H26.9312C25.5791 16.8708 25.5797 18.0817 25.5801 18.8111L25.5801 18.8462V25.2611C25.5801 25.3522 25.5762 25.4455 25.5722 25.5385V25.5385V25.5386C25.548 26.1114 25.5242 26.6747 26.4246 26.6747H34.339V28.7768H26.2285C25.4392 28.7768 25.5005 29.6214 25.5546 30.3668L25.5546 30.3669C25.5678 30.5479 25.5805 30.7231 25.5805 30.8789V38.49C25.5805 39.5049 26.3594 40.3019 27.9946 40.3019H37.217V42.6517H24.2176C21.6662 42.6517 20.1775 39.8668 20.1775 38.2002V17.7953C20.1775 15.6928 22.1075 14.2072 23.4158 14.2072ZM51.0177 13.6275C57.8194 13.6275 60.8294 18.8466 60.8294 18.8466L59.4554 20.2958C59.4554 20.2958 56.6595 15.8017 51.7539 15.8017C47.7614 15.8017 43.4302 18.4114 43.4302 28.7043C43.4302 37.9824 48.549 41.2087 51.7539 41.2087C56.9532 41.2087 60.4369 34.8658 60.4369 34.8658L61.7444 36.0981C61.7444 36.0981 58.9977 43.2744 51.4106 43.2744C46.4389 43.2744 38.198 39.3599 38.198 28.7047C38.198 18.9191 45.4579 13.6275 51.0177 13.6275ZM7.32535 50.6681H53.634C53.634 50.6681 53.7839 50.3957 54.2713 49.9613C54.6747 49.6016 54.853 49.4974 54.931 49.4715H54.9903C54.9903 49.4715 54.9827 49.4544 54.931 49.4715H7.32535V50.6681ZM53.193 53.9718H7.32535V52.6307H53.193V53.9718ZM7.32535 57.288L54.9587 57.3062C54.9587 57.3062 54.6486 57.2639 54.1085 56.6536C53.83 56.3398 53.6168 56.1286 53.6168 56.1286L7.32535 56.1104V57.288ZM58.1766 57.4603L58.1471 57.4604C56.2056 57.4604 54.6314 55.6365 54.6314 53.3856C54.6314 51.1396 56.1987 49.3187 58.1343 49.3107L58.1639 49.3106C60.1046 49.3106 61.678 51.1345 61.678 53.3854C61.678 55.6314 60.1115 57.4523 58.1766 57.4603Z" fill="var(--fill-0, white)"/>
</g>
</svg>
