<svg  width="24.4046" height="24.3778" overflow="visible" style="display: block;" viewBox="0 0 24.4046 24.3778" fill="none" xmlns="http://www.w3.org/2000/svg">
<g id="Group 14">
<path id="Vector-20" fill-rule="evenodd" clip-rule="evenodd" d="M10.1059 5.56086C10.9115 4.35013 10.709 2.73203 9.62989 1.75715C8.5508 0.782262 6.92052 0.744591 5.79754 1.66859C4.67457 2.59259 4.39756 4.19961 5.14638 5.44626C5.89519 6.6929 7.444 7.20322 8.78721 6.64588C9.32399 6.4219 9.78272 6.04446 10.1059 5.56086Z" fill="var(--fill-0, #91CC08)" stroke="var(--stroke-1, #1A3631)" stroke-width="2" stroke-linecap="round" stroke-linejoin="round"/>
<path id="Vector-21" fill-rule="evenodd" clip-rule="evenodd" d="M10.1059 22.0682C10.9115 20.8575 10.709 19.2394 9.62989 18.2645C8.5508 17.2896 6.92052 17.2519 5.79754 18.1759C4.67457 19.0999 4.39756 20.7069 5.14638 21.9536C5.89519 23.2002 7.444 23.7105 8.78721 23.1532C9.32399 22.9292 9.78272 22.5518 10.1059 22.0682V22.0682Z" fill="var(--fill-0, #91CC08)" stroke="var(--stroke-1, #1A3631)" stroke-width="2" stroke-linecap="round" stroke-linejoin="round"/>
<path id="Vector-22" fill-rule="evenodd" clip-rule="evenodd" d="M14.2986 13.8137C13.493 12.6029 13.6954 10.9849 14.7745 10.01C15.8536 9.03508 17.4839 8.99741 18.6069 9.92141C19.7299 10.8454 20.0069 12.4524 19.2581 13.6991C18.5093 14.9457 16.9604 15.456 15.6172 14.8987C15.0804 14.6747 14.6217 14.2973 14.2986 13.8137V13.8137Z" fill="var(--fill-0, #91CC08)" stroke="var(--stroke-1, #1A3631)" stroke-width="2" stroke-linecap="round" stroke-linejoin="round"/>
<path id="Vector-23" d="M10.6021 2.92214C10.0498 2.92214 9.60207 3.36986 9.60207 3.92214C9.60207 4.47443 10.0498 4.92214 10.6021 4.92214V3.92214V2.92214ZM23.4046 4.92214C23.9569 4.92214 24.4046 4.47443 24.4046 3.92214C24.4046 3.36986 23.9569 2.92214 23.4046 2.92214V3.92214V4.92214ZM4.72395 4.92214C5.27623 4.92214 5.72395 4.47443 5.72395 3.92214C5.72395 3.36986 5.27623 2.92214 4.72395 2.92214V3.92214V4.92214ZM1 2.92214C0.447715 2.92214 0 3.36986 0 3.92214C0 4.47443 0.447715 4.92214 1 4.92214V3.92214V2.92214ZM10.6021 19.431C10.0498 19.431 9.60207 19.8788 9.60207 20.431C9.60207 20.9833 10.0498 21.431 10.6021 21.431V20.431V19.431ZM23.4046 21.431C23.9569 21.431 24.4046 20.9833 24.4046 20.431C24.4046 19.8788 23.9569 19.431 23.4046 19.431V20.431V21.431ZM4.72395 21.431C5.27623 21.431 5.72395 20.9833 5.72395 20.431C5.72395 19.8788 5.27623 19.431 4.72395 19.431V20.431V21.431ZM1 19.431C0.447715 19.431 0 19.8788 0 20.431C0 20.9833 0.447715 21.431 1 21.431V20.431V19.431ZM13.8026 13.1766C14.3548 13.1766 14.8026 12.7289 14.8026 12.1766C14.8026 11.6243 14.3548 11.1766 13.8026 11.1766V12.1766V13.1766ZM1 11.1766C0.447715 11.1766 0 11.6243 0 12.1766C0 12.7289 0.447715 13.1766 1 13.1766V12.1766V11.1766ZM19.6805 11.1766C19.1282 11.1766 18.6805 11.6243 18.6805 12.1766C18.6805 12.7289 19.1282 13.1766 19.6805 13.1766V12.1766V11.1766ZM23.4044 13.1766C23.9567 13.1766 24.4044 12.7289 24.4044 12.1766C24.4044 11.6243 23.9567 11.1766 23.4044 11.1766V12.1766V13.1766ZM10.6021 3.92214V4.92214H23.4046V3.92214V2.92214H10.6021V3.92214ZM4.72395 3.92214V2.92214H1V3.92214V4.92214H4.72395V3.92214ZM10.6021 20.431V21.431H23.4046V20.431V19.431H10.6021V20.431ZM4.72395 20.431V19.431H1V20.431V21.431H4.72395V20.431ZM13.8026 12.1766V11.1766H1V12.1766V13.1766H13.8026V12.1766ZM19.6805 12.1766V13.1766H23.4044V12.1766V11.1766H19.6805V12.1766Z" fill="var(--stroke-0, #1A3631)"/>
</g>
</svg>
