<svg  width="32" height="32" overflow="visible" style="display: block;" viewBox="0 0 32 32" fill="none" xmlns="http://www.w3.org/2000/svg">
<g id="Expand">
<g id="Group 17">
<path id="Vector-39" d="M4.59995 11.0751C4.59995 11.6273 5.04766 12.0751 5.59995 12.0751C6.15223 12.0751 6.59995 11.6273 6.59995 11.0751H5.59995H4.59995ZM6.59995 5.59998C6.59995 5.0477 6.15223 4.59998 5.59995 4.59998C5.04766 4.59998 4.59995 5.0477 4.59995 5.59998H5.59995H6.59995ZM5.59998 4.6C5.0477 4.6 4.59998 5.04772 4.59998 5.6C4.59998 6.15229 5.0477 6.6 5.59998 6.6V5.6V4.6ZM11.0751 6.6C11.6273 6.6 12.0751 6.15229 12.0751 5.6C12.0751 5.04772 11.6273 4.6 11.0751 4.6V5.6V6.6ZM6.30714 4.89288C5.91662 4.50235 5.28345 4.50235 4.89293 4.89288C4.5024 5.2834 4.5024 5.91657 4.89293 6.30709L5.60003 5.59998L6.30714 4.89288ZM12.2263 13.6404C12.6168 14.031 13.25 14.031 13.6405 13.6404C14.031 13.2499 14.031 12.6167 13.6405 12.2262L12.9334 12.9333L12.2263 13.6404ZM20.6583 25.1333C20.106 25.1333 19.6583 25.5811 19.6583 26.1333C19.6583 26.6856 20.106 27.1333 20.6583 27.1333V26.1333V25.1333ZM26.1334 27.1333C26.6857 27.1333 27.1334 26.6856 27.1334 26.1333C27.1334 25.5811 26.6857 25.1333 26.1334 25.1333V26.1333V27.1333ZM25.1332 26.1334C25.1332 26.6857 25.581 27.1334 26.1332 27.1334C26.6855 27.1334 27.1332 26.6857 27.1332 26.1334H26.1332H25.1332ZM27.1332 20.6583C27.1332 20.106 26.6855 19.6583 26.1332 19.6583C25.581 19.6583 25.1332 20.106 25.1332 20.6583H26.1332H27.1332ZM25.4261 26.8405C25.8167 27.231 26.4498 27.231 26.8403 26.8405C27.2309 26.4499 27.2309 25.8168 26.8403 25.4262L26.1332 26.1334L25.4261 26.8405ZM19.507 18.0929C19.1165 17.7024 18.4833 17.7024 18.0928 18.0929C17.7023 18.4834 17.7023 19.1166 18.0928 19.5071L18.7999 18.8L19.507 18.0929ZM6.59995 20.6583C6.59995 20.106 6.15223 19.6583 5.59995 19.6583C5.04766 19.6583 4.59995 20.106 4.59995 20.6583H5.59995H6.59995ZM4.59995 26.1334C4.59995 26.6857 5.04766 27.1334 5.59995 27.1334C6.15223 27.1334 6.59995 26.6857 6.59995 26.1334H5.59995H4.59995ZM5.59998 25.1333C5.0477 25.1333 4.59998 25.5811 4.59998 26.1333C4.59998 26.6856 5.0477 27.1333 5.59998 27.1333V26.1333V25.1333ZM11.0751 27.1333C11.6273 27.1333 12.0751 26.6856 12.0751 26.1333C12.0751 25.5811 11.6273 25.1333 11.0751 25.1333V26.1333V27.1333ZM4.89288 25.4262C4.50235 25.8168 4.50235 26.4499 4.89288 26.8405C5.2834 27.231 5.91657 27.231 6.30709 26.8405L5.59998 26.1334L4.89288 25.4262ZM13.6404 19.5071C14.031 19.1166 14.031 18.4834 13.6404 18.0929C13.2499 17.7024 12.6167 17.7024 12.2262 18.0929L12.9333 18.8L13.6404 19.5071ZM20.6583 4.6C20.106 4.6 19.6583 5.04772 19.6583 5.6C19.6583 6.15229 20.106 6.6 20.6583 6.6V5.6V4.6ZM26.1334 6.6C26.6857 6.6 27.1334 6.15229 27.1334 5.6C27.1334 5.04772 26.6857 4.6 26.1334 4.6V5.6V6.6ZM27.1332 5.59998C27.1332 5.0477 26.6855 4.59998 26.1332 4.59998C25.581 4.59998 25.1332 5.0477 25.1332 5.59998H26.1332H27.1332ZM25.1332 11.0751C25.1332 11.6273 25.581 12.0751 26.1332 12.0751C26.6855 12.0751 27.1332 11.6273 27.1332 11.0751H26.1332H25.1332ZM26.8403 6.30709C27.2309 5.91657 27.2309 5.2834 26.8403 4.89288C26.4498 4.50235 25.8167 4.50235 25.4261 4.89288L26.1332 5.59998L26.8403 6.30709ZM18.0928 12.2262C17.7023 12.6167 17.7023 13.2499 18.0928 13.6404C18.4833 14.031 19.1165 14.031 19.507 13.6404L18.7999 12.9333L18.0928 12.2262ZM5.59995 11.0751H6.59995V5.59998H5.59995H4.59995V11.0751H5.59995ZM5.59998 5.6V6.6H11.0751V5.6V4.6H5.59998V5.6ZM5.60003 5.59998L4.89293 6.30709L12.2263 13.6404L12.9334 12.9333L13.6405 12.2262L6.30714 4.89288L5.60003 5.59998ZM20.6583 26.1333V27.1333H26.1334V26.1333V25.1333H20.6583V26.1333ZM26.1332 26.1334H27.1332V20.6583H26.1332H25.1332V26.1334H26.1332ZM26.1332 26.1334L26.8403 25.4262L19.507 18.0929L18.7999 18.8L18.0928 19.5071L25.4261 26.8405L26.1332 26.1334ZM5.59995 20.6583H4.59995V26.1334H5.59995H6.59995V20.6583H5.59995ZM5.59998 26.1333V27.1333H11.0751V26.1333V25.1333H5.59998V26.1333ZM5.59998 26.1334L6.30709 26.8405L13.6404 19.5071L12.9333 18.8L12.2262 18.0929L4.89288 25.4262L5.59998 26.1334ZM20.6583 5.6V6.6H26.1334V5.6V4.6H20.6583V5.6ZM26.1332 5.59998H25.1332V11.0751H26.1332H27.1332V5.59998H26.1332ZM26.1332 5.59998L25.4261 4.89288L18.0928 12.2262L18.7999 12.9333L19.507 13.6404L26.8403 6.30709L26.1332 5.59998Z" fill="var(--stroke-0, #1A3631)"/>
</g>
<circle id="Ellipse 7" cx="15.9111" cy="15.9111" r="2.22222" fill="var(--fill-0, #91CC08)"/>
</g>
</svg>
