<svg  width="26.1232" height="24.4004" overflow="visible" style="display: block;" viewBox="0 0 26.1232 24.4004" fill="none" xmlns="http://www.w3.org/2000/svg">
<g id="Vector">
<path id="Vector 8" d="M1.50618 5.97807L4.17285 1.08918H21.5062L24.6173 5.97807H1.50618Z" fill="var(--fill-0, #91CC08)"/>
<path id="Vector_642" fill-rule="evenodd" clip-rule="evenodd" d="M25.0617 6.16949L21.6332 1.00026H17.3475L19.0617 6.16949L13.0617 23.4003L25.0617 6.16949Z" stroke="var(--stroke-0, #1A3631)" stroke-width="2" stroke-linecap="round" stroke-linejoin="round"/>
<path id="Vector_642-2" d="M0.168056 5.6148C-0.138296 6.07433 -0.0141227 6.6952 0.445406 7.00155C0.904935 7.3079 1.5258 7.18373 1.83216 6.7242L1.00011 6.1695L0.168056 5.6148ZM4.44626 1.00027V0.000274003C4.1119 0.000274003 3.79967 0.167375 3.61421 0.445574L4.44626 1.00027ZM8.75395 2.00027C9.30623 2.00027 9.75395 1.55256 9.75395 1.00027C9.75395 0.447989 9.30623 0.000274003 8.75395 0.000274003V1.00027V2.00027ZM1.81934 5.59604C1.50262 5.14359 0.879093 5.03355 0.426644 5.35027C-0.0258054 5.66698 -0.13584 6.29051 0.180874 6.74296L1.00011 6.1695L1.81934 5.59604ZM13.0616 23.4003L12.2424 23.9737C12.5289 24.3829 13.0733 24.518 13.5178 24.2901C13.9623 24.0623 14.1705 23.5414 14.0055 23.0699L13.0616 23.4003ZM7.97473 5.83915C7.79228 5.31787 7.2218 5.04319 6.70052 5.22564C6.17924 5.40809 5.90457 5.97857 6.08701 6.49985L7.03087 6.1695L7.97473 5.83915ZM1.00011 5.16949C0.447821 5.16949 0.000106157 5.6172 0.000106157 6.16949C0.000106157 6.72177 0.447821 7.16949 1.00011 7.16949V6.16949V5.16949ZM7.03087 7.16949C7.58316 7.16949 8.03087 6.72177 8.03087 6.16949C8.03087 5.6172 7.58316 5.16949 7.03087 5.16949V6.16949V7.16949ZM9.70267 1.3165C9.87732 0.792556 9.59416 0.226236 9.07022 0.051588C8.54627 -0.12306 7.97995 0.1601 7.80531 0.684044L8.75399 1.00027L9.70267 1.3165ZM6.08223 5.85327C5.90758 6.37721 6.19074 6.94353 6.71469 7.11818C7.23863 7.29283 7.80495 7.00967 7.9796 6.48573L7.03091 6.1695L6.08223 5.85327ZM8.75407 0.00026089C8.20179 0.00026089 7.75407 0.447976 7.75407 1.00026C7.75407 1.55255 8.20179 2.00026 8.75407 2.00026V1.00026V0.00026089ZM17.3695 2.00026C17.9217 2.00026 18.3695 1.55255 18.3695 1.00026C18.3695 0.447976 17.9217 0.00026089 17.3695 0.00026089V1.00026V2.00026ZM7.03091 5.16949C6.47863 5.16949 6.03091 5.6172 6.03091 6.16949C6.03091 6.72177 6.47863 7.16949 7.03091 7.16949V6.16949V5.16949ZM25.1232 7.16949C25.6755 7.16949 26.1232 6.72177 26.1232 6.16949C26.1232 5.6172 25.6755 5.16949 25.1232 5.16949V6.16949V7.16949ZM1.00011 6.1695L1.83216 6.7242L5.27831 1.55497L4.44626 1.00027L3.61421 0.445574L0.168056 5.6148L1.00011 6.1695ZM4.44626 1.00027V2.00027H8.75395V1.00027V0.000274003H4.44626V1.00027ZM1.00011 6.1695L0.180874 6.74296L12.2424 23.9737L13.0616 23.4003L13.8809 22.8268L1.81934 5.59604L1.00011 6.1695ZM13.0616 23.4003L14.0055 23.0699L7.97473 5.83915L7.03087 6.1695L6.08701 6.49985L12.1178 23.7306L13.0616 23.4003ZM1.00011 6.16949V7.16949H7.03087V6.16949V5.16949H1.00011V6.16949ZM8.75399 1.00027L7.80531 0.684044L6.08223 5.85327L7.03091 6.1695L7.9796 6.48573L9.70267 1.3165L8.75399 1.00027ZM8.75407 1.00026V2.00026H17.3695V1.00026V0.00026089H8.75407V1.00026ZM7.03091 6.16949V7.16949H25.1232V6.16949V5.16949H7.03091V6.16949Z" fill="var(--stroke-0, #1A3631)"/>
</g>
</svg>
