<svg  width="26.8933" height="16.2297" overflow="visible" style="display: block;" viewBox="0 0 26.8933 16.2297" fill="none" xmlns="http://www.w3.org/2000/svg">
<g id="Group 18">
<path id="Vector-12" fill-rule="evenodd" clip-rule="evenodd" d="M5.75059 15.2292H7.32112C9.8826 15.2638 11.9884 13.2177 12.0274 10.6563V9.13023C11.9884 6.56881 9.8826 4.52273 7.32112 4.55736H5.75059C3.18634 4.51876 1.07621 6.56599 1.03721 9.13023V10.6545C1.05547 11.8862 1.56235 13.0602 2.44631 13.9182C3.33027 14.7761 4.51888 15.2477 5.75059 15.2292V15.2292Z" fill="var(--fill-0, #91CC08)" stroke="var(--stroke-1, #1A3631)" stroke-width="2" stroke-linecap="round" stroke-linejoin="round"/>
<path id="Vector-13" fill-rule="evenodd" clip-rule="evenodd" d="M21.1499 15.2292H19.5793C17.0179 15.2638 14.9121 13.2177 14.8731 10.6563V9.13023C14.9121 6.56881 17.0179 4.52273 19.5793 4.55736H21.1499C23.7141 4.51876 25.8243 6.56599 25.8632 9.13023V10.6545C25.845 11.8862 25.3381 13.0602 24.4541 13.9182C23.5702 14.7761 22.3816 15.2477 21.1499 15.2292Z" fill="var(--fill-0, #91CC08)" stroke="var(--stroke-1, #1A3631)" stroke-width="2" stroke-linecap="round" stroke-linejoin="round"/>
<path id="Vector-14" d="M0.0372171 9.13036C0.0372171 9.68264 0.484932 10.1304 1.03722 10.1304C1.5895 10.1304 2.03722 9.68264 2.03722 9.13036H1.03722H0.0372171ZM3.05975 1.9819C3.60192 1.87667 3.95612 1.35185 3.85089 0.809682C3.74565 0.267516 3.22083 -0.0866874 2.67867 0.0185466L2.86921 1.00023L3.05975 1.9819ZM11.3686 8.37795C10.9531 8.7418 10.9112 9.37358 11.2751 9.78907C11.6389 10.2046 12.2707 10.2464 12.6862 9.88257L12.0274 9.13026L11.3686 8.37795ZM14.2019 9.88257C14.6174 10.2464 15.2492 10.2046 15.613 9.78907C15.9769 9.37358 15.935 8.7418 15.5195 8.37795L14.8607 9.13026L14.2019 9.88257ZM24.8561 9.13032C24.8561 9.6826 25.3038 10.1303 25.8561 10.1303C26.4084 10.1303 26.8561 9.6826 26.8561 9.13032H25.8561H24.8561ZM24.2147 0.018508C23.6725 -0.0867262 23.1477 0.267477 23.0425 0.809644C22.9372 1.35181 23.2914 1.87663 23.8336 1.98187L24.0241 1.00019L24.2147 0.018508ZM1.03722 9.13036H2.03722C2.03722 7.06365 1.92462 5.28018 2.08752 3.87082C2.16727 3.18086 2.30359 2.7095 2.4789 2.41086C2.62832 2.15629 2.79778 2.03275 3.05975 1.9819L2.86921 1.00023L2.67867 0.0185466C1.7952 0.190027 1.16294 0.701902 0.754093 1.39841C0.371128 2.05083 0.192636 2.84619 0.100747 3.64117C-0.0796257 5.20168 0.0372171 7.26095 0.0372171 9.13036H1.03722ZM12.0274 9.13026L12.6862 9.88257C13.12 9.50266 13.7681 9.50266 14.2019 9.88257L14.8607 9.13026L15.5195 8.37795C14.3315 7.33753 12.5566 7.33753 11.3686 8.37795L12.0274 9.13026ZM25.8561 9.13032H26.8561C26.8561 7.26091 26.973 5.20164 26.7926 3.64113C26.7007 2.84615 26.5222 2.05079 26.1392 1.39837C25.7304 0.701864 25.0981 0.189989 24.2147 0.018508L24.0241 1.00019L23.8336 1.98187C24.0956 2.03271 24.265 2.15626 24.4144 2.41082C24.5897 2.70946 24.7261 3.18083 24.8058 3.87078C24.9687 5.28014 24.8561 7.06361 24.8561 9.13032H25.8561Z" fill="var(--stroke-0, #1A3631)"/>
</g>
</svg>
