<svg  width="26.7251" height="28.4191" overflow="visible" style="display: block;" viewBox="0 0 26.7251 28.4191" fill="none" xmlns="http://www.w3.org/2000/svg">
<g id="Group 15">
<path id="Vector 7" d="M16.8362 5.32069H5.28063C4.92507 2.83178 7.50285 1.32068 8.83618 0.876248C11.3547 0.7281 17.1917 0.520692 20.3917 0.876248C23.5917 1.2318 25.2806 3.98736 25.7251 5.32069C25.8732 8.87625 25.9917 16.3429 25.2806 17.7651C24.5695 19.1874 22.3177 19.8392 21.2806 19.9874V10.2096C20.5695 7.00958 18.0214 5.61699 16.8362 5.32069Z" fill="var(--fill-0, #91CC08)"/>
<path id="Vector-19" fill-rule="evenodd" clip-rule="evenodd" d="M1.00003 18.4962C1.02537 21.8144 3.73347 24.4851 7.05174 24.4643H7.87193L10.2967 27.0221C10.5427 27.2759 10.8811 27.4191 11.2346 27.4191C11.588 27.4191 11.9264 27.2759 12.1724 27.0221L14.5972 24.4643H15.4174C18.733 24.4813 21.4369 21.8117 21.4623 18.4962V11.2321C21.4369 7.91384 18.7288 5.24313 15.4106 5.26392H7.05515C3.73555 5.24124 1.02536 7.9125 1.00003 11.2321L1.00003 18.4962Z" stroke="var(--stroke-0, #1A3631)" stroke-width="2" stroke-linecap="round" stroke-linejoin="round"/>
<path id="Vector-20" d="M4.26283 5.26399C4.26283 5.81627 4.71055 6.26399 5.26283 6.26399C5.81512 6.26399 6.26283 5.81627 6.26283 5.26399H5.26283H4.26283ZM19.67 1.00102V2.00102C19.6761 2.00102 19.6823 2.00096 19.6885 2.00085L19.67 1.00102ZM23.9061 2.66449L23.2122 3.38456V3.38456L23.9061 2.66449ZM25.7251 6.83617H26.7251C26.7251 6.83001 26.725 6.82386 26.7249 6.8177L25.7251 6.83617ZM21.4621 18.7581C20.9098 18.7581 20.4621 19.2058 20.4621 19.7581C20.4621 20.3104 20.9098 20.7581 21.4621 20.7581V19.7581V18.7581ZM6.1154 11.9374C5.56312 11.9374 5.1154 12.3851 5.1154 12.9374C5.1154 13.4897 5.56312 13.9374 6.1154 13.9374V12.9374V11.9374ZM15.9458 13.9374C16.4981 13.9374 16.9458 13.4897 16.9458 12.9374C16.9458 12.3851 16.4981 11.9374 15.9458 11.9374V12.9374V13.9374ZM7.34474 15.5319C6.79246 15.5319 6.34474 15.9796 6.34474 16.5319C6.34474 17.0842 6.79246 17.5319 7.34474 17.5319V16.5319V15.5319ZM14.7163 17.5319C15.2685 17.5319 15.7163 17.0842 15.7163 16.5319C15.7163 15.9796 15.2685 15.5319 14.7163 15.5319V16.5319V17.5319ZM5.26283 5.26399H6.26283C6.26283 3.99361 6.76485 3.25662 7.5532 2.77944C8.41913 2.2553 9.71587 2.00102 11.3145 2.00102V1.00102V0.0010218C9.57104 0.0010218 7.84193 0.266829 6.51755 1.06847C5.11558 1.91707 4.26283 3.31156 4.26283 5.26399H5.26283ZM11.3145 1.00102V2.00102H19.67V1.00102V0.0010218H11.3145V1.00102ZM19.67 1.00102L19.6885 2.00085C21.0001 1.97655 22.2676 2.47429 23.2122 3.38456L23.9061 2.66449L24.6 1.94443C23.2734 0.666072 21.4934 -0.0329334 19.6514 0.0011934L19.67 1.00102ZM23.9061 2.66449L23.2122 3.38456C24.1567 4.29483 24.701 5.54306 24.7252 6.85464L25.7251 6.83617L26.7249 6.8177C26.6909 4.97576 25.9265 3.22278 24.6 1.94443L23.9061 2.66449ZM25.7251 6.83617H24.7251V13.9229H25.7251H26.7251V6.83617H25.7251ZM25.7251 13.9229H24.7251C24.7251 15.4848 24.511 16.7155 24.0171 17.5311C23.5802 18.2526 22.8607 18.7581 21.4621 18.7581V19.7581V20.7581C23.4739 20.7581 24.8859 19.9574 25.7279 18.567C26.5129 17.2707 26.7251 15.5839 26.7251 13.9229H25.7251ZM6.1154 12.9374V13.9374H15.9458V12.9374V11.9374H6.1154V12.9374ZM7.34474 16.5319V17.5319H14.7163V16.5319V15.5319H7.34474V16.5319Z" fill="var(--stroke-0, #1A3631)"/>
</g>
</svg>
