<svg  width="24.4004" height="24.3999" overflow="visible" style="display: block;" viewBox="0 0 24.4004 24.3999" fill="none" xmlns="http://www.w3.org/2000/svg">
<g id="Group 16">
<path id="Vector 6" d="M1.0892 7.75553L2.86698 1.08887H21.5336L23.3114 7.75553H1.0892Z" fill="var(--fill-0, #91CC08)"/>
<path id="Vector-10" d="M8.10741 14.6929C7.71688 14.3024 7.08372 14.3024 6.69319 14.6929C6.30267 15.0834 6.30267 15.7166 6.69319 16.1071L7.4003 15.4L8.10741 14.6929ZM10.6003 18.6L9.89319 19.3071C10.2837 19.6976 10.9169 19.6976 11.3074 19.3071L10.6003 18.6ZM17.7074 12.9071C18.0979 12.5166 18.0979 11.8834 17.7074 11.4929C17.3169 11.1024 16.6837 11.1024 16.2932 11.4929L17.0003 12.2L17.7074 12.9071ZM0.026122 7.66667C-0.0987576 8.20466 0.236127 8.74201 0.774108 8.86689C1.31209 8.99177 1.84944 8.65688 1.97432 8.1189L1.00022 7.89279L0.026122 7.66667ZM2.60022 1V1.05964e-07C2.13505 1.05964e-07 1.7313 0.320759 1.62612 0.773886L2.60022 1ZM12.2002 2C12.7525 2 13.2002 1.55228 13.2002 1C13.2002 0.447715 12.7525 1.05964e-07 12.2002 1.05964e-07V1V2ZM2.00022 7.89277C2.00022 7.34048 1.55251 6.89277 1.00022 6.89277C0.447938 6.89277 0.000222725 7.34048 0.000222725 7.89277H1.00022H2.00022ZM1.00022 23.3999H0.000222725C0.000222725 23.9522 0.447938 24.3999 1.00022 24.3999V23.3999ZM23.4002 23.3999V24.3999C23.9525 24.3999 24.4002 23.9522 24.4002 23.3999H23.4002ZM24.4002 7.89277C24.4002 7.34048 23.9525 6.89277 23.4002 6.89277C22.8479 6.89277 22.4002 7.34048 22.4002 7.89277H23.4002H24.4002ZM1.00022 6.89282C0.447938 6.89282 0.000222725 7.34054 0.000222725 7.89282C0.000222725 8.44511 0.447938 8.89282 1.00022 8.89282V7.89282V6.89282ZM12.2002 8.89282C12.7525 8.89282 13.2002 8.44511 13.2002 7.89282C13.2002 7.34054 12.7525 6.89282 12.2002 6.89282V7.89282V8.89282ZM11.2001 7.89279C11.2001 8.44507 11.6479 8.89279 12.2001 8.89279C12.7524 8.89279 13.2001 8.44507 13.2001 7.89279H12.2001H11.2001ZM13.2001 1C13.2001 0.447715 12.7524 -1.32454e-08 12.2001 -1.32454e-08C11.6479 -1.32454e-08 11.2001 0.447715 11.2001 1H12.2001H13.2001ZM12.2002 6.89282C11.6479 6.89282 11.2002 7.34054 11.2002 7.89282C11.2002 8.44511 11.6479 8.89282 12.2002 8.89282V7.89282V6.89282ZM23.4002 8.89282C23.9525 8.89282 24.4002 8.44511 24.4002 7.89282C24.4002 7.34054 23.9525 6.89282 23.4002 6.89282V7.89282V8.89282ZM13.2001 7.89277C13.2001 7.34048 12.7524 6.89277 12.2001 6.89277C11.6479 6.89277 11.2001 7.34048 11.2001 7.89277H12.2001H13.2001ZM11.2001 10.6C11.2001 11.1522 11.6479 11.6 12.2001 11.6C12.7524 11.6 13.2001 11.1522 13.2001 10.6H12.2001H11.2001ZM12.2002 -1.32454e-08C11.6479 -1.32454e-08 11.2002 0.447715 11.2002 1C11.2002 1.55228 11.6479 2 12.2002 2V1V-1.32454e-08ZM21.8002 1L22.7743 0.773886C22.6691 0.320759 22.2654 -1.32454e-08 21.8002 -1.32454e-08V1ZM22.4261 8.1189C22.551 8.65688 23.0883 8.99177 23.6263 8.86689C24.1643 8.74201 24.4992 8.20466 24.3743 7.66667L23.4002 7.89279L22.4261 8.1189ZM7.4003 15.4L6.69319 16.1071L9.89319 19.3071L10.6003 18.6L11.3074 17.8929L8.10741 14.6929L7.4003 15.4ZM10.6003 18.6L11.3074 19.3071L17.7074 12.9071L17.0003 12.2L16.2932 11.4929L9.89319 17.8929L10.6003 18.6ZM1.00022 7.89279L1.97432 8.1189L3.57432 1.22611L2.60022 1L1.62612 0.773886L0.026122 7.66667L1.00022 7.89279ZM2.60022 1V2H12.2002V1V1.05964e-07H2.60022V1ZM1.00022 7.89277H0.000222725V23.3999H1.00022H2.00022V7.89277H1.00022ZM1.00022 23.3999V24.3999H23.4002V23.3999V22.3999H1.00022V23.3999ZM23.4002 23.3999H24.4002V7.89277H23.4002H22.4002V23.3999H23.4002ZM1.00022 7.89282V8.89282H12.2002V7.89282V6.89282H1.00022V7.89282ZM12.2001 7.89279H13.2001V1H12.2001H11.2001V7.89279H12.2001ZM12.2002 7.89282V8.89282H23.4002V7.89282V6.89282H12.2002V7.89282ZM12.2001 7.89277H11.2001V10.6H12.2001H13.2001V7.89277H12.2001ZM12.2002 1V2H21.8002V1V-1.32454e-08H12.2002V1ZM21.8002 1L20.8261 1.22611L22.4261 8.1189L23.4002 7.89279L24.3743 7.66667L22.7743 0.773886L21.8002 1Z" fill="var(--stroke-0, #1A3631)"/>
</g>
</svg>
