<svg width="596" height="212" viewBox="0 0 596 212" fill="none" xmlns="http://www.w3.org/2000/svg">
<path d="M93.2737 80.0998L87.9794 82.0645V0H105.575V97.9333H87.9794L12.3015 18.2869L17.7516 16.3222V97.9333H0V0H17.7516L93.2737 80.0998Z" fill="#1A3631"/>
<path d="M147.616 56.221V83.1224H218.467V97.9333H129.864V0H218.311V14.8109H147.616V42.0146H205.542V56.221H147.616Z" fill="#1A3631"/>
<path fill-rule="evenodd" clip-rule="evenodd" d="M382.043 0H335.435L306.467 26.6357H328.218V47.5403L382.043 0ZM303.234 26.6357L274.262 0H227.654L257.806 26.6357H303.234ZM256.854 70.6181L226.197 97.4974H256.854V70.6181ZM328.218 89.6567V49.1675L383.5 97.4974H336.892L328.218 89.6567Z" fill="#1A3631"/>
<path d="M273 98H226.5H225L282 48.5L271 38.5H316.5V79.5L304.5 69L273 98Z" fill="#91CC08"/>
<path d="M474.68 56.3153V0H491.941V57.625C491.941 63.5427 491.076 68.7328 489.344 73.1953C487.715 77.6579 485.373 81.4413 482.318 84.5457C479.262 87.6501 475.647 90.2209 471.472 92.2581C467.296 94.1984 462.714 95.605 457.724 96.4781C452.835 97.3513 447.642 97.7878 442.142 97.7878C436.439 97.7878 431.042 97.3513 425.95 96.4781C420.858 95.605 416.225 94.1984 412.049 92.2581C407.874 90.2209 404.259 87.6501 401.203 84.5457C398.25 81.4413 395.908 77.6579 394.177 73.1953C392.547 68.7328 391.732 63.5427 391.732 57.625V0H409.147V56.3153C409.147 63.6882 410.572 69.3149 413.424 73.1953C416.377 76.9788 420.349 79.5981 425.339 81.0533C430.329 82.5085 435.93 83.2361 442.142 83.2361C448.151 83.2361 453.599 82.5085 458.487 81.0533C463.376 79.5981 467.296 76.9788 470.25 73.1953C473.203 69.3149 474.68 63.6882 474.68 56.3153Z" fill="#1A3631"/>
<path d="M509.13 64.7553H526.086C526.493 68.3448 527.97 71.5947 530.516 74.505C533.164 77.3183 536.626 79.5496 540.904 81.1988C545.283 82.751 550.273 83.5271 555.874 83.5271C560.864 83.5271 564.988 82.945 568.247 81.7809C571.506 80.6167 573.899 79.016 575.427 76.9788C577.056 74.8445 577.871 72.3707 577.871 69.5574C577.871 66.7441 576.903 64.5613 574.968 63.0091C573.135 61.3599 570.284 60.0017 566.414 58.9346C562.544 57.7705 557.605 56.6548 551.597 55.5877C546.606 54.7146 541.769 53.5505 537.085 52.0953C532.4 50.6401 528.174 48.7969 524.406 46.5656C520.74 44.3344 517.837 41.618 515.699 38.4166C513.56 35.1182 512.491 31.2378 512.491 26.7752C512.491 21.7306 513.967 17.1711 516.921 13.0966C519.976 9.02209 524.457 5.8207 530.363 3.49242C536.27 1.16414 543.45 0 551.902 0C564.836 0 574.714 2.86185 581.537 8.58554C588.36 14.2122 591.67 21.8761 591.466 31.5773H574.816C574.51 25.4656 572.168 21.0515 567.789 18.3352C563.41 15.6189 557.86 14.2607 551.138 14.2607C545.13 14.2607 540.089 15.2793 536.015 17.3166C531.942 19.3538 529.905 22.6522 529.905 27.2118C529.905 29.152 530.363 30.8497 531.28 32.3049C532.298 33.6631 533.928 34.9242 536.168 36.0884C538.409 37.1555 541.464 38.2226 545.334 39.2897C549.305 40.2599 554.143 41.327 559.845 42.4911C564.734 43.2672 569.316 44.3344 573.594 45.6925C577.871 47.0507 581.588 48.7484 584.745 50.7856C588.004 52.8229 590.55 55.4422 592.383 58.6436C594.216 61.845 595.132 65.7739 595.132 70.4305C595.132 75.7662 593.707 80.5197 590.855 84.6912C588.004 88.7657 583.625 92.0156 577.718 94.4409C571.913 96.7692 564.377 97.9333 555.11 97.9333C548.083 97.9333 541.922 97.1572 536.626 95.605C531.433 93.9558 527.003 91.8701 523.336 89.3478C519.67 86.7285 516.717 83.9151 514.477 80.9078C512.338 77.9004 510.81 74.9901 509.894 72.1767C509.079 69.2664 508.825 66.7926 509.13 64.7553Z" fill="#1A3631"/>
<path d="M8.05127 120.933V210.705H1V120.933H8.05127Z" fill="#1A3631"/>
<path d="M35.7658 158.235V210.705H28.9598V143.992H35.4592L35.7658 158.235ZM34.2329 173.218L31.2285 171.43C31.3511 167.484 31.9847 163.784 33.1293 160.331C34.2738 156.879 35.8067 153.837 37.7279 151.206C39.69 148.534 41.9995 146.459 44.6566 144.979C47.3135 143.499 50.2771 142.759 53.5473 142.759C56.3269 142.759 58.8 143.211 60.9664 144.116C63.1329 145.02 64.9724 146.459 66.4848 148.432C68.0381 150.364 69.2236 152.891 70.0411 156.015C70.8587 159.098 71.2674 162.839 71.2674 167.237V210.705H64.5227V167.175C64.5227 162.613 64.0118 159.037 62.9898 156.447C61.9679 153.857 60.4964 152.028 58.5751 150.96C56.6948 149.85 54.4261 149.295 51.7691 149.295C48.9486 149.295 46.4551 150.055 44.2887 151.576C42.1222 153.097 40.3032 155.07 38.8316 157.495C37.36 159.92 36.2359 162.531 35.4592 165.326C34.6826 168.08 34.2738 170.71 34.2329 173.218Z" fill="#1A3631"/>
<path d="M111.061 143.992V150.158H82.7334V143.992H111.061ZM92.9118 126.913H99.7791V194.428C99.7791 197.511 100.106 199.833 100.76 201.395C101.414 202.957 102.273 204.005 103.335 204.54C104.398 205.033 105.543 205.279 106.769 205.279C107.668 205.279 108.527 205.218 109.344 205.094C110.203 204.971 110.979 204.827 111.674 204.663L111.858 210.952C111.122 211.24 110.141 211.466 108.915 211.63C107.689 211.836 106.442 211.938 105.175 211.938C102.845 211.938 100.76 211.404 98.9207 210.335C97.0812 209.267 95.6096 207.458 94.506 204.909C93.4432 202.361 92.9118 198.867 92.9118 194.428V126.913Z" fill="#1A3631"/>
<path d="M147.789 212C144.11 212 140.738 211.404 137.672 210.212C134.606 208.979 131.949 207.129 129.701 204.663C127.494 202.155 125.777 199.011 124.55 195.229C123.324 191.407 122.711 186.906 122.711 181.726V174.081C122.711 168.532 123.345 163.784 124.612 159.838C125.92 155.851 127.698 152.604 129.946 150.096C132.194 147.589 134.749 145.739 137.611 144.547C140.472 143.355 143.477 142.759 146.624 142.759C150.262 142.759 153.45 143.355 156.189 144.547C158.969 145.739 161.299 147.548 163.179 149.973C165.06 152.398 166.47 155.461 167.41 159.16C168.391 162.818 168.882 167.155 168.882 172.17V177.904H126.819V171.491H162.076V169.765C161.994 165.408 161.381 161.708 160.236 158.667C159.132 155.584 157.436 153.241 155.147 151.638C152.899 149.994 150.058 149.171 146.624 149.171C144.131 149.171 141.821 149.644 139.695 150.59C137.611 151.494 135.792 152.933 134.238 154.906C132.726 156.879 131.561 159.448 130.743 162.613C129.926 165.778 129.517 169.601 129.517 174.081V181.726C129.517 185.837 129.946 189.372 130.805 192.331C131.704 195.291 132.971 197.757 134.606 199.73C136.282 201.703 138.265 203.183 140.554 204.17C142.843 205.115 145.377 205.588 148.157 205.588C151.509 205.588 154.472 204.992 157.048 203.8C159.664 202.608 161.973 200.82 163.976 198.435L167.533 202.998C166.388 204.642 164.916 206.143 163.118 207.499C161.319 208.855 159.173 209.945 156.68 210.767C154.186 211.589 151.223 212 147.789 212Z" fill="#1A3631"/>
<path d="M190.281 155.029V210.705H183.475V143.992H190.097L190.281 155.029ZM209.595 143.499L209.35 150.405C208.696 150.24 208.042 150.137 207.388 150.096C206.734 150.014 205.998 149.973 205.18 149.973C202.605 149.973 200.336 150.548 198.374 151.699C196.453 152.85 194.818 154.474 193.469 156.57C192.161 158.626 191.139 161.03 190.403 163.784C189.708 166.497 189.3 169.436 189.177 172.601L186.847 173.649C186.847 169.333 187.215 165.305 187.951 161.565C188.686 157.824 189.81 154.556 191.323 151.761C192.876 148.925 194.818 146.726 197.148 145.164C199.478 143.561 202.258 142.759 205.487 142.759C206.223 142.759 206.979 142.841 207.755 143.006C208.573 143.129 209.186 143.294 209.595 143.499Z" fill="#1A3631"/>
<path d="M228.296 158.235V210.705H221.49V143.992H227.99L228.296 158.235ZM226.763 173.218L223.759 171.43C223.881 167.484 224.515 163.784 225.66 160.331C226.804 156.879 228.337 153.837 230.258 151.206C232.22 148.534 234.53 146.459 237.187 144.979C239.844 143.499 242.807 142.759 246.078 142.759C248.857 142.759 251.33 143.211 253.497 144.116C255.663 145.02 257.503 146.459 259.015 148.432C260.568 150.364 261.754 152.891 262.571 156.015C263.389 159.098 263.798 162.839 263.798 167.237V210.705H257.053V167.175C257.053 162.613 256.542 159.037 255.52 156.447C254.498 153.857 253.027 152.028 251.105 150.96C249.225 149.85 246.956 149.295 244.299 149.295C241.479 149.295 238.985 150.055 236.819 151.576C234.652 153.097 232.833 155.07 231.362 157.495C229.89 159.92 228.766 162.531 227.99 165.326C227.213 168.08 226.804 170.71 226.763 173.218Z" fill="#1A3631"/>
<path d="M315.793 198.744V162.428C315.793 159.304 315.262 156.776 314.199 154.844C313.136 152.871 311.583 151.432 309.539 150.528C307.495 149.624 304.94 149.171 301.875 149.171C299.095 149.171 296.622 149.747 294.455 150.898C292.289 152.008 290.593 153.57 289.366 155.584C288.14 157.557 287.527 159.838 287.527 162.428L280.721 162.366C280.721 159.776 281.232 157.31 282.254 154.967C283.276 152.624 284.727 150.548 286.607 148.74C288.487 146.89 290.736 145.431 293.352 144.362C296.009 143.294 298.972 142.759 302.242 142.759C306.167 142.759 309.662 143.396 312.727 144.671C315.793 145.945 318.184 148.041 319.901 150.96C321.659 153.878 322.538 157.742 322.538 162.551V196.709C322.538 199.011 322.681 201.395 322.967 203.861C323.294 206.328 323.744 208.342 324.316 209.904V210.705H317.142C316.692 209.267 316.345 207.417 316.1 205.156C315.895 202.895 315.793 200.758 315.793 198.744ZM317.265 171.8L317.387 177.595H305.553C302.365 177.595 299.565 177.945 297.153 178.644C294.742 179.342 292.718 180.349 291.083 181.665C289.489 182.98 288.283 184.563 287.465 186.412C286.648 188.221 286.239 190.276 286.239 192.578C286.239 195.538 286.709 197.963 287.649 199.854C288.63 201.703 290.02 203.08 291.819 203.985C293.658 204.848 295.845 205.279 298.38 205.279C301.691 205.279 304.634 204.601 307.209 203.245C309.784 201.888 311.889 200.1 313.525 197.881C315.16 195.661 316.222 193.297 316.713 190.79L318.552 194.921C318.144 196.771 317.387 198.703 316.284 200.717C315.18 202.69 313.749 204.54 311.992 206.266C310.234 207.951 308.149 209.328 305.737 210.397C303.326 211.466 300.607 212 297.582 212C293.944 212 290.756 211.301 288.017 209.904C285.279 208.506 283.153 206.41 281.641 203.615C280.169 200.778 279.433 197.285 279.433 193.133C279.433 190.05 279.965 187.214 281.027 184.624C282.09 182.035 283.664 179.774 285.749 177.842C287.833 175.91 290.449 174.43 293.597 173.403C296.745 172.334 300.403 171.8 304.572 171.8H317.265Z" fill="#1A3631"/>
<path d="M362.699 143.992V150.158H334.372V143.992H362.699ZM344.55 126.913H351.417V194.428C351.417 197.511 351.744 199.833 352.398 201.395C353.052 202.957 353.911 204.005 354.974 204.54C356.036 205.033 357.181 205.279 358.407 205.279C359.307 205.279 360.165 205.218 360.983 205.094C361.841 204.971 362.618 204.827 363.313 204.663L363.497 210.952C362.761 211.24 361.78 211.466 360.553 211.63C359.327 211.836 358.08 211.938 356.813 211.938C354.483 211.938 352.398 211.404 350.559 210.335C348.72 209.267 347.248 207.458 346.144 204.909C345.081 202.361 344.55 198.867 344.55 194.428V126.913Z" fill="#1A3631"/>
<path d="M385.141 143.992V210.705H378.335V143.992H385.141ZM377.292 124.755C377.292 123.317 377.681 122.125 378.457 121.179C379.275 120.193 380.379 119.699 381.768 119.699C383.199 119.699 384.303 120.193 385.08 121.179C385.897 122.125 386.306 123.317 386.306 124.755C386.306 126.153 385.897 127.324 385.08 128.27C384.303 129.215 383.199 129.688 381.768 129.688C380.379 129.688 379.275 129.215 378.457 128.27C377.681 127.324 377.292 126.153 377.292 124.755Z" fill="#1A3631"/>
<path d="M401.512 180.863V173.896C401.512 168.84 402.084 164.38 403.229 160.516C404.414 156.653 406.07 153.405 408.195 150.775C410.362 148.144 412.917 146.15 415.86 144.794C418.844 143.437 422.114 142.759 425.67 142.759C429.349 142.759 432.66 143.437 435.603 144.794C438.587 146.15 441.142 148.144 443.268 150.775C445.434 153.405 447.09 156.653 448.234 160.516C449.42 164.38 450.013 168.84 450.013 173.896V180.863C450.013 185.878 449.42 190.317 448.234 194.181C447.09 198.045 445.434 201.313 443.268 203.985C441.101 206.615 438.526 208.609 435.542 209.965C432.599 211.322 429.349 212 425.793 212C422.196 212 418.905 211.322 415.921 209.965C412.978 208.609 410.423 206.615 408.257 203.985C406.09 201.313 404.414 198.045 403.229 194.181C402.084 190.317 401.512 185.878 401.512 180.863ZM408.318 173.896V180.863C408.318 184.645 408.706 188.057 409.483 191.098C410.26 194.14 411.384 196.75 412.855 198.929C414.368 201.066 416.207 202.71 418.374 203.861C420.54 205.012 423.013 205.588 425.793 205.588C428.736 205.588 431.291 205.012 433.457 203.861C435.665 202.71 437.484 201.066 438.914 198.929C440.386 196.75 441.469 194.14 442.164 191.098C442.9 188.057 443.268 184.645 443.268 180.863V173.896C443.268 170.114 442.88 166.723 442.103 163.723C441.326 160.681 440.161 158.091 438.608 155.954C437.095 153.775 435.256 152.11 433.089 150.96C430.964 149.768 428.491 149.171 425.67 149.171C422.972 149.171 420.54 149.768 418.374 150.96C416.207 152.11 414.368 153.775 412.855 155.954C411.384 158.091 410.26 160.681 409.483 163.723C408.706 166.723 408.318 170.114 408.318 173.896Z" fill="#1A3631"/>
<path d="M472.577 158.235V210.705H465.771V143.992H472.27L472.577 158.235ZM471.044 173.218L468.039 171.43C468.162 167.484 468.795 163.784 469.94 160.331C471.085 156.879 472.617 153.837 474.539 151.206C476.501 148.534 478.81 146.459 481.467 144.979C484.124 143.499 487.088 142.759 490.358 142.759C493.138 142.759 495.611 143.211 497.777 144.116C499.944 145.02 501.783 146.459 503.296 148.432C504.849 150.364 506.034 152.891 506.852 156.015C507.669 159.098 508.078 162.839 508.078 167.237V210.705H501.333V167.175C501.333 162.613 500.823 159.037 499.801 156.447C498.779 153.857 497.307 152.028 495.386 150.96C493.506 149.85 491.237 149.295 488.58 149.295C485.759 149.295 483.266 150.055 481.099 151.576C478.933 153.097 477.114 155.07 475.642 157.495C474.171 159.92 473.047 162.531 472.27 165.326C471.493 168.08 471.085 170.71 471.044 173.218Z" fill="#1A3631"/>
<path d="M560.074 198.744V162.428C560.074 159.304 559.542 156.776 558.479 154.844C557.417 152.871 555.863 151.432 553.819 150.528C551.776 149.624 549.221 149.171 546.155 149.171C543.375 149.171 540.902 149.747 538.736 150.898C536.569 152.008 534.873 153.57 533.647 155.584C532.42 157.557 531.807 159.838 531.807 162.428L525.001 162.366C525.001 159.776 525.512 157.31 526.534 154.967C527.556 152.624 529.007 150.548 530.888 148.74C532.768 146.89 535.016 145.431 537.632 144.362C540.289 143.294 543.253 142.759 546.523 142.759C550.447 142.759 553.942 143.396 557.008 144.671C560.074 145.945 562.465 148.041 564.182 150.96C565.939 153.878 566.818 157.742 566.818 162.551V196.709C566.818 199.011 566.961 201.395 567.248 203.861C567.575 206.328 568.024 208.342 568.596 209.904V210.705H561.423C560.973 209.267 560.625 207.417 560.38 205.156C560.176 202.895 560.074 200.758 560.074 198.744ZM561.545 171.8L561.668 177.595H549.834C546.646 177.595 543.846 177.945 541.434 178.644C539.022 179.342 536.999 180.349 535.364 181.665C533.769 182.98 532.563 184.563 531.746 186.412C530.928 188.221 530.52 190.276 530.52 192.578C530.52 195.538 530.99 197.963 531.93 199.854C532.911 201.703 534.301 203.08 536.099 203.985C537.939 204.848 540.126 205.279 542.66 205.279C545.971 205.279 548.914 204.601 551.49 203.245C554.065 201.888 556.17 200.1 557.805 197.881C559.44 195.661 560.503 193.297 560.993 190.79L562.833 194.921C562.424 196.771 561.668 198.703 560.564 200.717C559.46 202.69 558.03 204.54 556.272 206.266C554.514 207.951 552.43 209.328 550.018 210.397C547.606 211.466 544.888 212 541.863 212C538.225 212 535.036 211.301 532.298 209.904C529.559 208.506 527.433 206.41 525.921 203.615C524.449 200.778 523.714 197.285 523.714 193.133C523.714 190.05 524.245 187.214 525.308 184.624C526.371 182.035 527.944 179.774 530.029 177.842C532.114 175.91 534.73 174.43 537.877 173.403C541.025 172.334 544.683 171.8 548.853 171.8H561.545Z" fill="#1A3631"/>
<path d="M593 116V210.705H586.194V116H593Z" fill="#1A3631"/>
</svg>
