<svg width="39" height="38" viewBox="0 0 39 38" fill="none" xmlns="http://www.w3.org/2000/svg">
<path opacity="0.1" d="M39 0.376238L38.1006 7.31574C35.8658 7.14852 34.1761 7.59443 33.0314 8.65346C31.8868 9.71251 31.1509 11.1617 30.8239 13.0011C30.4969 14.8405 30.4151 16.875 30.5786 19.1045H39V38H22.9748V16.5963C22.9748 10.7437 24.3648 6.3403 27.1447 3.38614C29.979 0.376238 33.9308 -0.627063 39 0.376238ZM16.0252 0.376238L15.1258 7.31574C12.891 7.14852 11.2013 7.59443 10.0566 8.65346C8.91195 9.71251 8.1761 11.1617 7.84906 13.0011C7.52201 14.8405 7.44025 16.875 7.60378 19.1045H16.0252V38H0V16.5963C0 10.7437 1.38994 6.3403 4.16981 3.38614C7.00419 0.376238 10.956 -0.627063 16.0252 0.376238Z" fill="#222F2D"/>
</svg>
