<svg preserveAspectRatio="none" width="100%" height="100%" overflow="visible" style="display: block;" viewBox="0 0 17.25 17.25" fill="none" xmlns="http://www.w3.org/2000/svg">
<path id="vector" d="M5.95606 6.83222C5.95606 6.95009 6.00286 7.06314 6.08618 7.14649C6.16949 7.22984 6.28249 7.27666 6.40031 7.27666C6.51814 7.27666 6.63114 7.22984 6.71445 7.14649C6.79776 7.06314 6.84457 6.95009 6.84457 6.83222V5.94333C6.84457 5.82546 6.79776 5.71241 6.71445 5.62906C6.63114 5.54571 6.51814 5.49889 6.40031 5.49889C6.28249 5.49889 6.16949 5.54571 6.08618 5.62906C6.00286 5.71241 5.95606 5.82546 5.95606 5.94333V6.83222ZM5.95606 6.83222C5.95606 8.01096 6.42411 9.14142 7.25725 9.97491C8.09039 10.8084 9.22037 11.2767 10.3986 11.2767M10.3986 11.2767H11.2871C11.4049 11.2767 11.5179 11.2298 11.6012 11.1465C11.6846 11.0631 11.7314 10.9501 11.7314 10.8322C11.7314 10.7143 11.6846 10.6013 11.6012 10.5179C11.5179 10.4346 11.4049 10.3878 11.2871 10.3878H10.3986C10.2808 10.3878 10.1678 10.4346 10.0845 10.5179C10.0012 10.6013 9.95435 10.7143 9.95435 10.8322C9.95435 10.9501 10.0012 11.0631 10.0845 11.1465C10.1678 11.2298 10.2808 11.2767 10.3986 11.2767ZM0.625006 16.61L2.09105 13.2322C0.969448 11.6394 0.467444 9.6918 0.679245 7.75498C0.891046 5.81815 1.80209 4.02523 3.24141 2.71268C4.68072 1.40013 6.54936 0.658188 8.49664 0.626087C10.4439 0.593985 12.336 1.27393 13.8177 2.53833C15.2995 3.80272 16.2691 5.56464 16.5446 7.49343C16.8201 9.42222 16.3825 11.3853 15.3139 13.0142C14.2454 14.6432 12.6194 15.826 10.741 16.3408C8.86268 16.8555 6.86112 16.6668 5.11198 15.81L0.625006 16.61Z" stroke="var(--stroke-0, #E8EBEA)" stroke-width="1.25" stroke-linecap="round" stroke-linejoin="round"/>
</svg>
